<?xml version="1.0" encoding="UTF-8" standalone="no"?>
<!-- Created with Inkscape (http://www.inkscape.org/) -->
<svg
   xmlns:dc="http://purl.org/dc/elements/1.1/"
   xmlns:cc="http://web.resource.org/cc/"
   xmlns:rdf="http://www.w3.org/1999/02/22-rdf-syntax-ns#"
   xmlns:svg="http://www.w3.org/2000/svg"
   xmlns="http://www.w3.org/2000/svg"
   xmlns:sodipodi="http://sodipodi.sourceforge.net/DTD/sodipodi-0.dtd"
   xmlns:inkscape="http://www.inkscape.org/namespaces/inkscape"
   width="64px"
   height="64px"
   id="svg2249"
   sodipodi:version="0.32"
   inkscape:version="0.44.1"
   sodipodi:docbase="D:\1\Documents\Pictures"
   sodipodi:docname="autoflac_64_v3.svg">
  <defs
     id="defs2251" />
  <sodipodi:namedview
     id="base"
     pagecolor="#ffffff"
     bordercolor="#666666"
     borderopacity="1.0"
     inkscape:pageopacity="0.0"
     inkscape:pageshadow="2"
     inkscape:zoom="5"
     inkscape:cx="31.999968"
     inkscape:cy="29.49715"
     inkscape:current-layer="layer1"
     showgrid="true"
     inkscape:document-units="px"
     inkscape:grid-bbox="true"
     inkscape:showpageshadow="true"
     borderlayer="false"
     showborder="true"
     inkscape:window-width="844"
     inkscape:window-height="575"
     inkscape:window-x="1620"
     inkscape:window-y="348" />
  <metadata
     id="metadata2254">
    <rdf:RDF>
      <cc:Work
         rdf:about="">
        <dc:format>image/svg+xml</dc:format>
        <dc:type
           rdf:resource="http://purl.org/dc/dcmitype/StillImage" />
      </cc:Work>
    </rdf:RDF>
  </metadata>
  <g
     id="layer1"
     inkscape:label="Layer 1"
     inkscape:groupmode="layer">
    <rect
       style="fill:#34a02c;fill-opacity:1;stroke:black;stroke-width:0.37565172;stroke-miterlimit:4;stroke-dasharray:none;stroke-opacity:1"
       id="rect4049"
       width="7.6243482"
       height="9.6243486"
       x="1.1878259"
       y="53.187824" />
    <rect
       style="fill:#34a02c;fill-opacity:1;stroke:black;stroke-width:0.37565172;stroke-miterlimit:4;stroke-dasharray:none;stroke-opacity:1"
       id="rect7681"
       width="7.6243482"
       height="9.6243486"
       x="1.1878259"
       y="41.18782" />
    <rect
       style="fill:yellow;fill-opacity:1;stroke:black;stroke-width:0.37565172;stroke-miterlimit:4;stroke-dasharray:none;stroke-opacity:1"
       id="rect7683"
       width="7.6243482"
       height="9.6243486"
       x="1.1878259"
       y="29.187826" />
    <rect
       style="fill:yellow;fill-opacity:1;stroke:black;stroke-width:0.37565172;stroke-miterlimit:4;stroke-dasharray:none;stroke-opacity:1"
       id="rect7685"
       width="7.6243482"
       height="9.6243486"
       x="1.1878259"
       y="17.187826" />
    <rect
       style="fill:red;fill-opacity:1;stroke:black;stroke-width:0.37565172;stroke-miterlimit:4;stroke-dasharray:none;stroke-opacity:1"
       id="rect7687"
       width="7.6243482"
       height="9.6243486"
       x="1.1878259"
       y="5.1878247" />
    <rect
       style="fill:#34a02c;fill-opacity:1;stroke:black;stroke-width:0.37565172;stroke-miterlimit:4;stroke-dasharray:none;stroke-opacity:1"
       id="rect9461"
       width="7.6243482"
       height="9.6243486"
       x="11.187826"
       y="53.187824" />
    <rect
       style="fill:#34a02c;fill-opacity:1;stroke:black;stroke-width:0.37565172;stroke-miterlimit:4;stroke-dasharray:none;stroke-opacity:1"
       id="rect9463"
       width="7.6243482"
       height="9.6243486"
       x="11.187826"
       y="41.18782" />
    <rect
       style="fill:yellow;fill-opacity:1;stroke:black;stroke-width:0.37565172;stroke-miterlimit:4;stroke-dasharray:none;stroke-opacity:1"
       id="rect9465"
       width="7.6243482"
       height="9.6243486"
       x="11.187826"
       y="29.187828" />
    <rect
       style="fill:yellow;fill-opacity:1;stroke:black;stroke-width:0.37565172;stroke-miterlimit:4;stroke-dasharray:none;stroke-opacity:1"
       id="rect9467"
       width="7.6243482"
       height="9.6243486"
       x="11.187826"
       y="17.187828" />
    <rect
       style="fill:#34a02c;fill-opacity:1;stroke:black;stroke-width:0.37565172;stroke-miterlimit:4;stroke-dasharray:none;stroke-opacity:1"
       id="rect9471"
       width="7.6243482"
       height="9.6243486"
       x="21.187826"
       y="53.187824" />
    <rect
       style="fill:#34a02c;fill-opacity:1;stroke:black;stroke-width:0.37565172;stroke-miterlimit:4;stroke-dasharray:none;stroke-opacity:1"
       id="rect9473"
       width="7.6243482"
       height="9.6243486"
       x="21.187826"
       y="41.187824" />
    <rect
       style="fill:yellow;fill-opacity:1;stroke:black;stroke-width:0.37565172;stroke-miterlimit:4;stroke-dasharray:none;stroke-opacity:1"
       id="rect9475"
       width="7.6243482"
       height="9.6243486"
       x="21.187826"
       y="29.187826" />
    <rect
       style="fill:yellow;fill-opacity:1;stroke:black;stroke-width:0.37565172;stroke-miterlimit:4;stroke-dasharray:none;stroke-opacity:1"
       id="rect9477"
       width="7.6243482"
       height="9.6243486"
       x="21.187826"
       y="17.187826" />
    <rect
       style="fill:red;fill-opacity:1;stroke:black;stroke-width:0.37565172;stroke-miterlimit:4;stroke-dasharray:none;stroke-opacity:1"
       id="rect9479"
       width="7.6243482"
       height="9.6243486"
       x="21.187826"
       y="5.1878252" />
    <rect
       style="fill:#34a02c;fill-opacity:1;stroke:black;stroke-width:0.37565172;stroke-miterlimit:4;stroke-dasharray:none;stroke-opacity:1"
       id="rect9481"
       width="7.6243482"
       height="9.6243486"
       x="31.187824"
       y="53.187824" />
    <rect
       style="fill:#34a02c;fill-opacity:1;stroke:black;stroke-width:0.37565172;stroke-miterlimit:4;stroke-dasharray:none;stroke-opacity:1"
       id="rect9483"
       width="7.6243482"
       height="9.6243486"
       x="31.187824"
       y="41.18782" />
    <rect
       style="fill:yellow;fill-opacity:1;stroke:black;stroke-width:0.37565172;stroke-miterlimit:4;stroke-dasharray:none;stroke-opacity:1"
       id="rect9485"
       width="7.6243482"
       height="9.6243486"
       x="31.187824"
       y="29.187826" />
    <g
       style="opacity:0.75;fill:white;fill-rule:nonzero;stroke:white;stroke-width:0;stroke-miterlimit:4"
       id="Layer_x0020_1"
       transform="matrix(0.444444,0,0,0.44393,0,-0.700056)">
		<path
   id="path10982"
   d="M 144,144.167 L 0,144.167 L 0,0.167 L 144,0.167 L 144,144.167 z "
   style="fill:none;stroke:none" />

		<path
   id="path10984"
   d="M 103.995,123.063 C 103.995,131.699 80.82,138.697 52.233,138.697 C 23.645,138.697 0.469,131.698 0.469,123.063 C 0.469,114.43 23.644,107.43 52.233,107.43 C 80.82,107.43 103.995,114.43 103.995,123.063 z "
   style="opacity:0.2;fill:black;stroke:none" />

		<linearGradient
   y2="77.4795"
   x2="120.855"
   y1="77.4795"
   x1="15.1929"
   gradientUnits="userSpaceOnUse"
   id="aigrd1">
			<stop
   id="stop10987"
   style="stop-color:#FFFFFF"
   offset="0" />

			<stop
   id="stop10989"
   style="stop-color:#000000"
   offset="1" />

		</linearGradient>

		<path
   id="path10991"
   d="M 35.905,25.877 C 12.679,40.333 8.229,75.155 25.969,103.657 C 43.707,132.157 76.914,143.54 100.142,129.083 C 123.37,114.625 127.819,79.807 110.08,51.305 C 92.341,22.803 59.134,11.419 35.905,25.877 z M 72.289,84.332 C 69.205,86.251 64.795,84.737 62.441,80.956 C 60.088,77.173 60.68,72.553 63.761,70.634 C 66.845,68.714 71.251,70.224 73.606,74.008 C 75.96,77.791 75.372,82.414 72.289,84.333 L 72.289,84.332 z "
   style="opacity:0.2;fill:url(#aigrd1);stroke:none" />

		<linearGradient
   y2="39.327499"
   x2="101.3835"
   y1="114.4409"
   x1="30.130899"
   gradientUnits="userSpaceOnUse"
   id="aigrd2">
			<stop
   id="stop10994"
   style="stop-color:#98AFF2"
   offset="0.0112" />

			<stop
   id="stop10996"
   style="stop-color:#9DB3F3"
   offset="0.0958" />

			<stop
   id="stop10998"
   style="stop-color:#ACBFF5"
   offset="0.1985" />

			<stop
   id="stop11000"
   style="stop-color:#C4D2F8"
   offset="0.3104" />

			<stop
   id="stop11002"
   style="stop-color:#E6ECFC"
   offset="0.4282" />

			<stop
   id="stop11004"
   style="stop-color:#FFFFFF"
   offset="0.5" />

			<stop
   id="stop11006"
   style="stop-color:#F7F9FE"
   offset="0.5187" />

			<stop
   id="stop11008"
   style="stop-color:#D5DEFA"
   offset="0.6105" />

			<stop
   id="stop11010"
   style="stop-color:#BACAF6"
   offset="0.7041" />

			<stop
   id="stop11012"
   style="stop-color:#A7BBF4"
   offset="0.7992" />

			<stop
   id="stop11014"
   style="stop-color:#9CB2F2"
   offset="0.8967" />

			<stop
   id="stop11016"
   style="stop-color:#98AFF2"
   offset="1" />

		</linearGradient>

		<path
   id="path11018"
   d="M 33.609,25.314 C 10.381,39.772 5.931,74.594 23.67,103.094 C 41.407,131.591 74.617,142.978 97.845,128.52 C 121.072,114.064 125.522,79.239 107.784,50.742 C 90.045,22.241 56.835,10.856 33.609,25.314 z M 69.989,83.766 C 66.906,85.684 62.497,84.174 60.142,80.392 C 57.788,76.609 58.38,71.984 61.462,70.067 C 64.545,68.147 68.953,69.659 71.308,73.444 C 73.662,77.225 73.071,81.847 69.988,83.766 L 69.989,83.766 z "
   style="fill:url(#aigrd2);stroke:none" />

		<linearGradient
   gradientTransform="matrix(0.849,-0.5284,0.5284,0.849,-910.1607,618.7492)"
   y2="2.5896001"
   x2="1158.0178"
   y1="95.1772"
   x1="1065.4302"
   gradientUnits="userSpaceOnUse"
   id="aigrd3">
			<stop
   id="stop11021"
   style="stop-color:#B1CAFF"
   offset="0.0112" />

			<stop
   id="stop11023"
   style="stop-color:#B6CDFF"
   offset="0.1108" />

			<stop
   id="stop11025"
   style="stop-color:#C5D8FF"
   offset="0.2315" />

			<stop
   id="stop11027"
   style="stop-color:#DDE8FF"
   offset="0.3631" />

			<stop
   id="stop11029"
   style="stop-color:#FFFFFF"
   offset="0.5" />

			<stop
   id="stop11031"
   style="stop-color:#F8FAFF"
   offset="0.5262" />

			<stop
   id="stop11033"
   style="stop-color:#DDE6FF"
   offset="0.6396" />

			<stop
   id="stop11035"
   style="stop-color:#CAD8FF"
   offset="0.7554" />

			<stop
   id="stop11037"
   style="stop-color:#BFD0FF"
   offset="0.8741" />

			<stop
   id="stop11039"
   style="stop-color:#BBCDFF"
   offset="1" />

		</linearGradient>

		<path
   id="path11041"
   d="M 60.142,80.393 C 59.923,80.041 59.744,79.684 59.57,79.321 L 29.198,110.832 C 39.501,123.473 53.101,131.568 66.757,134.002 L 65.232,84.349 C 63.292,83.813 61.417,82.441 60.142,80.393 L 60.142,80.393 z "
   style="fill:url(#aigrd3);stroke:none" />

		<linearGradient
   gradientTransform="matrix(0.849,-0.5284,0.5284,0.849,-910.1607,618.7492)"
   y2="11.4777"
   x2="1164.618"
   y1="102.938"
   x1="1073.1577"
   gradientUnits="userSpaceOnUse"
   id="aigrd4">
			<stop
   id="stop11044"
   style="stop-color:#B1CAFF"
   offset="0.0112" />

			<stop
   id="stop11046"
   style="stop-color:#B6CDFF"
   offset="0.1108" />

			<stop
   id="stop11048"
   style="stop-color:#C5D8FF"
   offset="0.2315" />

			<stop
   id="stop11050"
   style="stop-color:#DDE8FF"
   offset="0.3631" />

			<stop
   id="stop11052"
   style="stop-color:#FFFFFF"
   offset="0.5" />

			<stop
   id="stop11054"
   style="stop-color:#F8FAFF"
   offset="0.5262" />

			<stop
   id="stop11056"
   style="stop-color:#DDE6FF"
   offset="0.6396" />

			<stop
   id="stop11058"
   style="stop-color:#CAD8FF"
   offset="0.7554" />

			<stop
   id="stop11060"
   style="stop-color:#BFD0FF"
   offset="0.8741" />

			<stop
   id="stop11062"
   style="stop-color:#BBCDFF"
   offset="1" />

		</linearGradient>

		<path
   id="path11064"
   d="M 68.212,70.356 L 98.585,38.842 C 88.441,28.174 75.82,21.476 63.245,19.597 L 64.771,69.249 C 65.932,69.312 67.113,69.694 68.212,70.356 z "
   style="fill:url(#aigrd4);stroke:none" />

		<g
   id="g11066"
   style="stroke:none">
			<path
   id="path11068"
   d="M 60.142,80.393 C 59.923,80.041 59.744,79.684 59.57,79.321 L 29.198,110.832 C 39.501,123.473 53.101,131.568 66.757,134.002 L 65.232,84.349 C 63.292,83.813 61.417,82.441 60.142,80.393 L 60.142,80.393 z "
   style="opacity:0.8" />

			<path
   id="path11070"
   d="M 68.212,70.356 L 98.585,38.842 C 88.441,28.174 75.82,21.476 63.245,19.597 L 64.771,69.249 C 65.932,69.312 67.113,69.694 68.212,70.356 z "
   style="opacity:0.8" />

		</g>

		<g
   id="g11072"
   style="opacity:0.4;stroke:none">
			<path
   id="path11074"
   d="M 61.361,81.804 C 61.08,81.504 60.823,81.195 60.586,80.874 L 39.784,121.194 C 52.207,131.191 66.622,135.663 79.789,134.384 L 66.969,84.417 C 65.055,84.406 63.005,83.53 61.361,81.803 L 61.361,81.804 z "
   style="opacity:0.8" />

			<path
   id="path11076"
   d="M 66.504,69.402 L 87.304,29.077 C 75.485,21.04 62.291,17.71 50.25,19.263 L 63.07,69.222 C 64.157,68.968 65.34,69.034 66.504,69.402 z "
   style="opacity:0.8" />

		</g>

		<g
   id="g11078"
   style="opacity:0.68000034;stroke:none">
			<path
   id="path11080"
   d="M 67.781,83.702 C 67.447,83.774 67.106,83.802 66.765,83.813 L 91.479,130.8 C 103.876,125.702 112.587,114.978 116.267,101.564 L 71.87,80.119 C 71.178,81.939 69.745,83.296 67.782,83.702 L 67.781,83.702 z "
   style="opacity:0.9" />

			<path
   id="path11082"
   d="M 59.734,70.449 L 35.018,23.455 C 24.392,29.302 17.034,39.633 13.973,52.153 L 58.37,73.598 C 58.552,72.389 59.027,71.307 59.735,70.448 L 59.734,70.449 z "
   style="opacity:0.9" />

		</g>

		<linearGradient
   y2="241.6747"
   x2="167.62621"
   y1="92.493698"
   x1="75.359901"
   gradientUnits="userSpaceOnUse"
   id="aigrd5">
			<stop
   id="stop11085"
   style="stop-color:#FFFFFF"
   offset="0" />

			<stop
   id="stop11087"
   style="stop-color:#9195F2"
   offset="1" />

		</linearGradient>

		<path
   id="path11089"
   d="M 24.177,102.778 C 41.674,130.891 74.545,142.161 97.457,127.9 C 120.367,113.641 124.773,79.169 107.276,51.056 C 89.779,22.946 56.904,11.675 33.994,25.935 C 11.082,40.196 6.68,74.666 24.177,102.778 z M 104.729,52.642 C 121.352,79.349 117.378,111.968 95.872,125.353 C 87.034,130.854 76,132.448 64.803,129.842 C 49.755,126.34 35.876,115.898 26.724,101.193 C 10.101,74.486 14.074,41.867 35.58,28.482 C 57.086,15.097 88.106,25.935 104.729,52.643 L 104.729,52.642 z "
   style="fill:url(#aigrd5);stroke:none" />

		<linearGradient
   y2="76.859901"
   x2="117.2574"
   y1="76.859901"
   x1="14.187"
   gradientUnits="userSpaceOnUse"
   id="aigrd6">
			<stop
   id="stop11092"
   style="stop-color:#9AB1FF"
   offset="0" />

			<stop
   id="stop11094"
   style="stop-color:#444973"
   offset="1" />

		</linearGradient>

		<path
   id="path11096"
   d="M 68.213,17.857 C 84.865,21.732 100.156,33.177 110.165,49.258 C 128.613,78.9 123.688,115.423 99.186,130.674 C 74.683,145.925 39.738,134.217 21.288,104.576 C 13.946,92.78 10.096,79.535 10.096,66.742 C 10.096,62.096 10.604,57.511 11.636,53.075 C 14.632,40.201 21.959,29.577 32.268,23.161 C 42.575,16.745 55.34,14.862 68.213,17.858 L 68.213,17.857 z M 97.073,127.278 C 119.698,113.195 124.051,79.139 106.77,51.372 C 89.486,23.603 57.01,12.472 34.383,26.557 C 11.752,40.643 7.4,74.695 24.685,102.463 C 41.967,130.229 74.442,141.364 97.073,127.278 L 97.073,127.278 z "
   style="fill:url(#aigrd6);stroke:none" />

		<linearGradient
   y2="76.917"
   x2="73.948196"
   y1="76.917"
   x1="57.505901"
   gradientUnits="userSpaceOnUse"
   id="aigrd7">
			<stop
   id="stop11099"
   style="stop-color:#9AB1FF"
   offset="0" />

			<stop
   id="stop11101"
   style="stop-color:#444973"
   offset="1" />

		</linearGradient>

		<path
   id="path11103"
   d="M 59.133,81.024 C 61.909,85.483 67.127,87.273 70.764,85.01 C 74.4,82.747 75.1,77.274 72.325,72.813 C 69.546,68.351 64.327,66.56 60.69,68.824 C 57.054,71.088 56.356,76.56 59.134,81.024 L 59.133,81.024 z M 68.928,74.926 C 70.485,77.428 70.355,80.553 68.651,81.614 C 66.946,82.675 64.086,81.411 62.529,78.911 C 61.799,77.737 61.439,76.425 61.439,75.253 C 61.439,73.928 61.899,72.783 62.804,72.219 C 64.508,71.158 67.37,72.424 68.929,74.926 L 68.928,74.926 z "
   style="fill:url(#aigrd7);stroke:none" />

		<linearGradient
   y2="76.917503"
   x2="81.526901"
   y1="76.917503"
   x1="49.9258"
   gradientUnits="userSpaceOnUse"
   id="aigrd8">
			<stop
   id="stop11106"
   style="stop-color:#9AB1FF"
   offset="0" />

			<stop
   id="stop11108"
   style="stop-color:#626AA4"
   offset="1" />

		</linearGradient>

		<path
   id="path11110"
   d="M 53.051,84.808 C 58.389,93.383 68.419,96.822 75.407,92.471 C 82.398,88.121 83.738,77.605 78.401,69.031 C 73.064,60.454 63.036,57.013 56.047,61.364 C 49.057,65.716 47.714,76.235 53.051,84.809 L 53.051,84.808 z M 56.946,82.385 C 53.247,76.443 54.177,69.156 59.019,66.141 C 63.862,63.128 70.809,65.511 74.507,71.454 C 78.205,77.394 77.274,84.679 72.433,87.693 C 67.59,90.707 60.641,88.324 56.946,82.385 L 56.946,82.385 z "
   style="opacity:0.5;fill:url(#aigrd8);stroke:none" />

		<path
   id="path11112"
   d="M 109.722,68.667 L 109.722,19.515"
   style="stroke:none" />

		<path
   id="path11114"
   d="M 142.133,1.658 L 108.222,19.515 L 108.222,64.021 C 105.693,62.447 101.834,61.936 97.818,62.92 C 91.54,64.459 87.272,69.056 88.285,73.188 C 89.298,77.32 95.208,79.422 101.486,77.884 C 107.236,76.474 111.286,72.501 111.152,68.668 L 111.223,68.668 L 111.223,32.408 L 139.113,17.237 L 139.113,23.439 L 139.113,44.614 C 136.584,43.04 132.725,42.529 128.709,43.513 C 122.431,45.052 118.163,49.649 119.176,53.781 C 120.189,57.913 126.099,60.015 132.377,58.477 C 138.127,57.067 142.177,53.094 142.043,49.261 L 142.114,49.261 L 142.114,2.041 L 142.104,2.055 L 142.135,1.658 L 142.133,1.658 z "
   style="stroke:none" />

		<g
   id="g11116">
			<path
   id="path11118"
   d="M 141.312,0.845 L 106.867,18.983 C 106.867,18.983 106.867,59.457 106.867,62.47 C 104.149,61.355 100.674,61.176 97.224,62.021 C 90.421,63.689 85.815,68.837 86.958,73.498 C 88.1,78.159 94.564,80.594 101.368,78.927 C 107.459,77.434 111.8,73.255 111.8,68.93 C 111.8,68.855 111.799,68.78 111.796,68.704 C 111.796,68.704 111.864,34.225 111.866,33.074 C 112.815,32.557 135.158,20.404 137.757,18.99 C 137.757,20.777 137.757,40.296 137.757,43.063 C 135.039,41.949 131.564,41.769 128.114,42.614 C 121.311,44.282 116.706,49.43 117.848,54.091 C 118.99,58.752 125.454,61.187 132.258,59.52 C 138.455,58.001 142.84,53.702 142.686,49.297 L 142.757,2.113 L 142.775,1.808 L 142.917,0 L 141.312,0.845 z "
   style="stroke:none" />

			<path
   id="path11120"
   d="M 142.777,2.73 L 108.866,20.587 L 108.866,65.093 C 106.337,63.519 102.478,63.008 98.462,63.992 C 92.184,65.531 87.916,70.128 88.929,74.26 C 89.942,78.392 95.852,80.494 102.13,78.956 C 107.88,77.546 111.93,73.573 111.796,69.74 L 111.867,69.74 L 111.867,33.48 L 139.757,18.309 L 139.757,24.511 L 139.757,45.686 C 137.228,44.112 133.369,43.601 129.353,44.585 C 123.075,46.124 118.807,50.721 119.82,54.853 C 120.833,58.985 126.743,61.087 133.021,59.549 C 138.771,58.139 142.821,54.166 142.687,50.333 L 142.758,50.333 L 142.758,3.113 L 142.748,3.127 L 142.779,2.73 L 142.777,2.73 z "
   style="fill:black;stroke:none" />

		</g>

	</g>
  </g>
</svg>
